<?xml version="1.0" standalone="no"?><!DOCTYPE svg PUBLIC "-//W3C//DTD SVG 1.1//EN" "http://www.w3.org/Graphics/SVG/1.1/DTD/svg11.dtd" ><svg xmlns="http://www.w3.org/2000/svg"><metadata></metadata><defs><font id="Tensentype TieShanKaiShuJ Regular" horiz-adv-x="2048"><font-face font-family="Tensentype TieShanKaiShuJ" font-weight="400" font-stretch="normal" units-per-em="2048" panose-1="1 1 1 4 1 1 1 1 1 1" ascent="2007" descent="-451" x-height="1" bbox="21 -261 1981 2048" underline-thickness="102" underline-position="-309" unicode-range="U+0030-6d3e" /><missing-glyph horiz-adv-x="1024" d="M102 0 l0 2048 l820 0 l0 -2048 l-820 0 ZM820 102 l0 1844 l-616 0 l0 -1844 l616 0 Z" /><glyph glyph-name="zero" unicode="0" d="M383 -26 q-15 0 -21 -8 q-1 -2 -2 -2 q-1 0 -2 2 q-6 8 -30 8 q-93 25 -153 82 q-17 19 -31 23 q-23 7 -50 101 q-47 160 -47 266 q0 118 46 319 q28 123 95 242 q44 77 116 181 q42 63 81 74 q16 1 24 10 q31 26 136 58 q19 5 24 14 q1 2 2 2 q1 0 2 -3 q4 -6 8 -8 l2 -1 q4 -2 4 -2 q1 0 4 2 q8 6 38 6 q92 0 165 -37 q31 -16 38.5 -28 q7.5 -12 23.5 -69 q62 -230 62 -233 q0 -3 -2 -11 q-6 -19 -6 -22 l6 -47 l-6 -30 l2 -118 q0 -4 -4 -24 q-1 -8 -3 -19 q-4 -27 -47 -187 q-19 -73 -24 -94 q-19 -98 -92 -231 q-28 -47 -103 -121 q-27 -26 -83 -67 q-22 -16 -36 -16 l-56 -14 l-81 2 ZM222 511 l0 -52 l0 -75 q0 -86 67 -185 q14 -21 25 -25 q83 -39 96 -39 l46 0 q40 -3 94 77 q-2 10 34 39 q56 41 59 88 q0 9 8 22 q17 28 40 157 q47 261 47 360 q0 122 -32 208 q-30 80 -99 80 q-100 0 -173 -66 q-120 -110 -178 -314 q-34 -117 -34 -275 Z" /><glyph glyph-name="one" unicode="1" d="M337 1348 q44 33 70 33 q10 0 34 -9 l7 0 l27 -31 l5 -20 q-9 -12 -17 -70 q-37 -55 -56 -188 l-98 -513 q-76 -397 -93 -458 q-11 -38 -20 -61 l-5 -13 q-1 -55 -62 -57 l-60 -9 l-20 30 l3 21 q5 42 19 125 q83 437 167 887 l28 146 q-9 -8 -15 -12 q-4 -2 -5 -5 q-5 -26 -59 -26 q-61 0 -61 31 q0 17 17 40 l58 43 l74 76 q0 6 62 40 Z" /><glyph glyph-name="two" unicode="2" d="M560 1332 l18 -7 l6 7 l6 0 l18 -7 l6 7 l6 0 l188 -39 q0 -9 32 -17 q9 -3 13 -13 q6 -15 33 -34 q42 -112 42 -158 q0 -50 -39 -147 q-37 -91 -112 -166 q-6 -20 -120 -149 q-39 -63 -84 -127 q-43 -61 -69 -96 q-53 -64 -89 -112 l-30 -63 l30 -13 l109 7 l48 -7 l79 7 l54 12 l48 -6 q55 31 69 26 q101 -34 108 -43 q15 -18 19 -18 q1 0 3 1 l0 -19 q1 -28 -24 -45 q-27 -59 -84 -58 q-2 -17 -18 -28 q-54 -37 -170 -37 q-70 0 -136 33 q-14 7 -57 25 l-24 -6 q-13 12 -102 19 q-76 -15 -103 -38 q-18 0 -29 -5 q-20 -17 -43 -27 l-109 -39 l-24 19 l12 65 l-6 6 l0 6 q21 58 73 84 l42 39 q39 55 163 142 l102 116 q32 25 204 328 q103 175 104 246 q-30 116 -103 116 l-6 -7 l-36 7 l-54 6 l-6 -6 q-25 6 -38 6 q-62 0 -125 -45 q-12 -1 -17 -12 q-6 -14 -24 -19 q-32 -10 -128 -85 l-30 0 l0 39 q0 48 30 58 q46 83 72 84 q45 95 139 129 q2 13 21 23 q42 22 60 22 q12 0 16 0 l24 0 l42 13 Z" /><glyph glyph-name="three" unicode="3" d="M663 1316 l20 6 l86 -13 q38 0 63 -16 q28 -12 60 -23 q13 -4 51 -43 q56 -59 56 -105 q0 -82 -63 -134 l-84 -126 q3 -9 -60 -57 q-7 -5 -14 -10 l0 -4 q-11 -8 -43 -20 q-5 -2 -13 -5 l-15 -37 q175 -58 212 -130 l29 -87 l0 -11 l0 -38 l0 -13 l0 -4 l-9 -27 q-52 -158 -151 -215 l-2 -4 q2 -12 -135 -98 q-87 -55 -104 -61 q-73 -28 -130 -39 q-7 -2 -11 -2 l-6 5 l-15 0 l-90 -19 l-88 -12 l-7 5 l-15 0 l-21 -6 l-15 3 q-118 17 -117 79 l0 10 q5 15 22 25 q1 1 2 2 l28 -7 l21 7 l37 -13 l106 26 l35 0 q77 0 139 31 q7 4 13 8 l9 1 q70 10 207 176 l6 7 q2 3 3 6 l2 5 q4 8 11 18 q5 8 8 21 l0 6 l30 64 q-2 42 -25 71 q-24 29 -72 51 q-29 13 -39 13 q-6 0 -16 -4 l-142 4 q-13 -6 -55 -11 q-15 5 -25 5 q-11 0 -51 -10 q-32 -8 -38 -13 q-1 -1 -2 -1 l-15 0 l-51 0 l-5 0 q-7 2 -13 4 l-3 2 q-37 13 -54 24 l-6 19 q3 8 9 20 q12 21 20 44 l0 1 q-2 42 81 56 l36 0 q3 1 7 2 q19 6 113 19 l19 2 q12 2 21 3 l64 25 l36 -7 q8 2 17 5 q101 31 120 65 l66 83 l32 41 l8 63 l-7 46 l-1 7 q-1 11 -8 20 q-16 21 -41 22 q-4 0 -8 1 q-16 15 -70 29 q-3 1 -11 3 l-65 0 l-21 -12 l-38 7 l-74 -21 q-10 1 -12 1 q-18 0 -37 -11 q-2 -1 -8 -2 l-6 6 l-86 -12 q-6 1 -8 2 q-35 10 -44 17 q-8 4 -8 5 l0 0 q199 171 325 171 l143 13 Z" /><glyph glyph-name="four" unicode="4" d="M782 1370 q37 -34 37 -84 q0 -28 -6 -57.5 q-6 -29.5 -13 -35.5 q0 0 0 0 q0 0 1 -1 q1 -1 2 -3 l0 -10 l-11 -27 q1 -10 1 -17 q0 -9 -6 -28 q-22 -76 -22 -146 q0 -4 0 -18 l0 -35 q-1 -3 -2 -5 q-7 -12 -13 -75 l0 -7 l0 -7 l-22 -154 l6 -22 l-7 -10 l0 9 l3 -4 l15 0 l17 14 l23 -7 l84 27 q21 -3 50 -26 q18 0 20 -1 q7 -1 28 -36 q6 -11 16 -23 l11 -50 q-3 -51 -153 -69 l-6 7 l-1 0 l-24 -7 l-13 11 l-3 -4 l-46 0 q-41 1 -41 -61 l-5 -27 l6 -21 q-10 -7 -44 -245 l-37 -95 q-1 -22 -77 -75 l-7 10 l-1 0 l-32 -14 q-19 1 -30 16 q-19 25 -19 65 q0 15 13 30 q13 17 12 58 l0 49 l16 48 l33 214 l4 0 l0 19 l-7 9 l-2 0 q-181 -1 -430 -68 q-60 13 -60 45 q0 74 56 171 q15 -1 81 87 q17 23 31 35 q47 55 131 168 l219 252 q20 4 63 88 q10 -3 61 76 l7 10 q55 56 93 57 ZM284 585 l0 -18 q101 1 177 17 q106 22 106 42 q0 4 -1 12 l16 116 l27 204 l12 52 q-292 -318 -337 -425 Z" /><glyph glyph-name="five" unicode="5" d="M546 1291 q45 -14 78 -14 q16 0 36 13 q5 3 35 1 q15 -1 32 5 q13 4 32 4 q13 0 41 -3 q27 -1 42 -7 q7 -2 25 -5 q14 -7 26 -16 q8 -6 24 -9 q10 -2 26 -41 q13 -30 14 -57 q-95 -35 -149 -35 q-25 0 -42 7 q-5 2 -75 3 q-6 3 -7 3 q-1 0 -11 -2 l-4 0 l-13 7 l-39 -7 q-32 1 -81 7 l-6 0 l-36 7 l-53 -95 l-85 -233 l13 0 l7 -7 l47 7 l37 0 l107 -6 l7 0 q7 0 13 0 q8 0 23 -6 q11 -5 74 -20 q62 -35 102 -66 q40 -31 65 -82 q33 -66 30 -95 l-3 -34 q-6 -68 -11 -93 q-14 -57 -75 -175 l-104 -109 q-144 -96 -246 -129 q-53 -14 -289 -50 q-17 -3 -33 -4 l-24 6 l-6 0 q-60 31 -64 46 l0 15 l59 54 l62 12 l100 26 q261 40 344 168 l60 66 q12 15 17 74 q-1 118 -34 167 q-39 57 -115 82 l-147 26 l-170 -32 q-75 7 -75 77 l-7 25 q17 47 132 247 l57 134 l38 124 l-6 31 l7 10 q21 36 48 36 q59 0 150 -58 Z" /><glyph glyph-name="six" unicode="6" d="M799 1370 q8 -16 8 -24 q0 -36 -104 -134 q-39 -38 -80 -92 q-26 -32 -58 -61 q-70 -61 -175 -252 l0 -19 q22 -10 31 -10 q3 0 20 8 q20 10 103 24 q45 0 86 9 q15 2 39 4 q9 -6 31 -13 q18 -7 62 -19 q183 -115 184 -161 l-7 -30 q3 -4 5 -8 q15 -13 29 -123 l-26 -112 l0 -11 l-90 -150 q-12 -12 -23 -24 q-136 -141 -171 -140 q-1 -6 -1 -9 q-2 -1 -7 -4 q-40 -16 -85 -18 l-9 0 l-137 -20 q-76 15 -92 32 q-14 11 -23 11 q-3 0 -15 -2 l-57 45 l-36 7 q-8 1 -19 29 q-5 10 -6 13 q-4 4 -9 8 l-7 5 q-41 33 -41 42 q0 1 4 6 q3 5 3 5 q-31 77 -32 85 q-1 6 -2 15 l-11 10 l5 14 l0 10 l-7 92 l7 27 l-6 49 q14 20 51 167 l85 174 q4 3 5 5 q1 2 3 3 q2 3 32 52 l25 45 l34 57 q28 49 64 91 q9 11 66 79 q49 58 107 109 q104 89 129 106 q26 17 52 17 q29 0 66 -19 ZM696 569 q-111 91 -206 94 l-8 1 q-13 0 -13 -9 q0 -1 0 -2 l0 0 q-7 -3 -37 -3 q-4 -3 -9 -7 q-37 -27 -61 -27 q-19 -1 -35 -40 q-27 -68 -24 -88 l0 -7 l1 -17 l-7 -20 l0 -42 l0 -16 l54 -136 q36 -71 99 -69 l14 0 l54 6 l6 -6 l12 0 q107 3 173 165 l0 6 l26 60 l0 37 q0 26 -22 66 q-6 12 -17 43 l0 11 Z" /><glyph glyph-name="seven" unicode="7" d="M782 1317 l70 -25 l43 -70 l0 -11 q-1 -60 -136 -205 l-5 -5 q-2 -3 -3 -4 q-1 -1 -3 -2 l-148 -268 l-273 -574 q-75 -193 -103 -202 l-68 0 l-5 0 q-31 0 -51 58 q0 2 -1 3 q-1 3 -2 7 q-1 2 -2 5 q1 5 2 8 q1 5 1 7 q23 88 93 209 q29 52 139 304 q71 162 210 423 l12 24 l18 33 q4 9 8 15 l5 7 l22 50 l-15 0 l-29 7 l-125 -20 l-18 7 l-23 -7 l-62 0 q-74 0 -84 -14 q-13 -7 -20 -7 q-16 0 -34 7 q-2 0 -4 1 l-47 -14 l-76 0 q-6 4 -9 7 q-29 25 -37 89 l0 3 l0 2 l0 0 l-1 2 q0 1 0 4 l4 5 q4 5 6 10 q2 7 3 8 q7 9 7 9 l-2 5 q1 3 5 11 l18 6 q3 1 4 1 q1 0 3 1 q2 1 8 3 q10 3 24 11 q32 17 55 17 q33 0 76 -12 q7 -1 8 -2 q3 0 4 -1 l1 1 l20 0 l28 0 l100 0 l6 7 l18 -7 l150 27 l91 7 l7 0 q0 0 0 0 l1 0 q1 0 2 1 q41 22 102 36 q1 0 2 0 q3 1 10 2 Z" /><glyph glyph-name="eight" unicode="8" d="M810 1270 l4 -4 q38 -34 70 -44 q3 -1 12 -3 l48 -49 q21 -19 35 -42 q13 -23 13 -28 q0 -3 -1 -8 q0 -4 -1 -8 l0 -8 l0 -99 q-109 -205 -303 -285 l0 -42 q10 -7 15 -10 q66 -46 106 -125 q6 0 9 0 q-2 -1 -2 -2 l0 0 q0 -1 3 -10 q3 -3 6 -7 q19 -25 33 -82 q1 -3 3 -16 l0 -12 l0 -45 q2 -87 -62 -191 l-57 -64 q-23 -31 -133 -75 q-88 -33 -275 -49 l-5 0 q-202 48 -248 138 q-34 89 -43 175 q5 15 10 30 q67 184 171 250 l163 100 q-20 6 -29 9 q-108 32 -140 76 q-90 36 -90 160 q0 28 8 95 l21 36 l14 26 q47 111 236 208 q29 13 75 18 q1 3 1 6 q0 0 0 2 q3 2 7 2 q15 2 18 2 l3 0 l7 0 l14 13 l10 0 q68 12 97 12 q20 0 85 -24 q24 -9 92 -26 ZM355 1047 q0 -8 1 -8 q-6 -7 -7 -13 q-1 -2 -5 -15 q-1 -3 -3 -10 l-8 -74 l16 -63 l32 -50 q13 -6 28 -14 q106 -54 142 -54 q56 0 122 86 q32 8 62 118 q5 21 7 27 q1 5 3 14 l-16 14 l0 6 l8 50 q-5 6 -12 14 q-65 74 -127 73 l-16 -5 l-13 12 l-80 0 q-6 -3 -14 -6 q-89 -40 -120 -102 ZM211 229 q50 -127 189 -127 q8 2 19 5 q244 69 246 234 l0 20 q-2 141 -157 227 q-11 -3 -25 -7 q-272 -81 -272 -352 Z" /><glyph glyph-name="nine" unicode="9" d="M201 -58 q-8 16 -8 24 q0 36 104 134 q39 38 80 93 q27 33 57 60 q71 62 176 252 l0 19 q-21 10 -31 10 q-3 0 -20 -8 q-22 -10 -103 -24 q-46 0 -86 -9 q-15 -2 -39 -4 q-9 6 -31 14 q-18 6 -62 18 q-183 115 -185 161 l8 30 q-3 4 -5 8 q-15 13 -29 123 l26 112 l0 11 l90 150 q12 13 23 24 q136 141 171 140 q1 6 1 9 q2 1 7 4 q39 16 85 18 l9 0 l137 20 q75 -15 92 -32 q13 -11 23 -11 q4 0 15 2 l57 -45 l36 -7 q8 -1 19 -28 q5 -11 6 -14 q4 -3 9 -8 l7 -5 q13 -10 21 -18 l10 -9 q10 -9 10 -14 q0 -2 -4 -7 q-3 -5 -3 -5 q31 -77 32 -85 q1 -5 2 -14 l11 -11 l-5 -14 l0 -9 l7 -93 l-7 -27 l6 -48 q-14 -21 -51 -168 l-85 -173 q-4 -4 -5 -5 q-1 -2 -3 -4 q-2 -3 -32 -51 l-25 -45 l-34 -57 q-28 -50 -64 -91 q-9 -11 -66 -79 q-49 -59 -108 -109 q-103 -89 -128 -106 q-25 -17 -52 -17 q-29 0 -66 18 ZM304 743 q110 -90 206 -94 l8 0 q13 0 13 9 q0 0 0 1 l0 0 q7 4 37 3 q4 3 9 7 q36 27 60 27 q20 1 36 41 q27 67 24 87 l0 8 l-1 16 l7 20 l0 42 l0 16 l-54 136 q-36 71 -99 69 l-14 0 l-54 -6 l-6 6 l-12 0 q-107 -3 -173 -165 l0 -6 l-26 -60 l0 -37 q0 -25 22 -66 q6 -12 17 -43 l0 -11 Z" /><glyph glyph-name="uni4E0E" unicode="&#x4e0e;" d="M403 211 q98 53 323 94 l11 2 q172 44 225 40 q27 0 35 1 q82 11 83 11 q2 0 15 -5 q3 0 7 0 q8 0 15 -4 q22 -12 22 -12 l10 2 q9 2 32 -21 q9 -9 9 -21 q0 -10 -6 -25 q6 -6 6 -8 q0 -12 -31 -12 q-15 0 -39 3 q-9 -2 -15 -2 q-2 0 -8 1 q-13 1 -37 1 l-28 1 q-42 -5 -95 -12 q-72 -9 -186 -22 q-59 -42 -105 -42 q-4 0 -12 3 l-145 -51 l-38 -9 l-28 -11 l-48 -14 q-47 -28 -106 -37 q-47 -7 -59 -15 q-4 -3 -5 -3 q-1 0 -4 2 q-6 6 -32 4 q-35 -2 -49 7 q-12 7 -30 39 q-16 29 -16 45 q0 7 18 27 q14 26 30 26 q15 0 63 -26 q7 -4 13 -4 q7 0 18 4 q76 29 187 43 ZM553 558 q5 18 5 28 q-1 18 10 57 q9 21 12 44 q6 50 43 138 l4 77 q73 224 91 303 q3 9 9 17 q116 200 123 209 q8 11 25 28 q6 10 51 48 q17 14 24 14 q8 0 9 -6 q3 -14 7 -20 q-68 -50 -81 -127 l-43 -288 l-13 -44 q42 5 125 33 q125 41 249 59 q39 7 160 55 q22 9 46 9 q13 0 33 -25 q14 -14 63 -26 l29 -15 q26 -5 42 -17 l22 -3 q-15 -31 -33 -57 l0 -19 q-1 -9 -14 -15 l-81 7 q-2 0 -13 -8 q-2 3 -32 3 l-61 3 q-4 0 -31 -3 q-10 -1 -18 -1 q-9 0 -27 2 q-13 1 -22 1 l-201 -28 l-4 0 l-18 -1 q-9 1 -12 1 q-22 0 -58 -17 q-11 -6 -15 -5 l-12 3 q-103 -21 -120 -25 q-18 -4 -21 -7 q-3 -3 -6 -22 l-20 -53 q-18 -75 -31 -130 q-12 -56 -24 -72 q-4 -8 -4 -10 l1 -7 l-7 -46 l1 -4 q-4 -32 -5 -34 l2 -1 q8 -4 16 -4 q24 0 113 29 q193 63 320 63 l50 -1 q22 0 34 4 q5 1 7 1 q2 0 10 -3 l105 39 l20 -1 q24 0 50 -16 l5 -4 q24 -32 40 -34 q46 -23 84 -64 q62 -55 62 -120 q0 -29 -63 -191 l-13 -49 l-44 -97 l-30 -92 l-21 -38 q-32 -77 -55 -99 q-49 -46 -130 -46 q-113 0 -207 61 q-47 31 -104 77 l-81 82 q-2 6 -20 30 q-1 1 -1 2 q0 8 17 8 q6 0 14 -6 q13 -10 32 -17 q42 -24 71 -24 q1 0 7 1 q2 0 16 2 q1 0 7 -2 q27 -9 47 -9 q59 0 146 26 q66 44 57 57 l3 14 q49 116 57 146 q11 42 32 162 q9 48 9 63 q0 37 -34 37 q-15 0 -38 -6 q-13 -5 -15 -5 l-47 4 l-46 -11 l-83 -17 q-60 -21 -76 -23 q-12 -1 -13 -4 q-3 -2 -3 -2 l-4 3 l-51 -11 q-51 -4 -72 -11 q-9 -3 -13 -3 q-15 0 -37 11 q-13 -1 -17 -1 q-28 0 -63 14 q-25 10 -54 11 q2 -17 2 -29 q0 -37 -24 -37 q-5 0 -12 2 q-11 -5 -20 -5 q-3 0 -6 5 l-5 -4 q-26 3 -38 12 q-18 13 -49 64 q3 8 3 10 l-6 34 l0 9 Z" /><glyph glyph-name="uni4EBA" unicode="&#x4eba;" d="M176 261 q4 29 17 29 q26 0 29 -66 l15 -7 l6 0 q14 1 45 32 q9 7 51 24 l30 29 q21 19 37 45 q29 8 61 47 q118 160 142 187 q101 116 115 139 q26 43 28 45 q2 2 54 58 q31 39 52 55 q24 25 33 31 q12 9 48 65 l79 105 q11 29 16 33 q12 8 28 27 l12 31 q10 17 17 71 l2 11 q0 10 -29 58 q-13 20 -22 65 q19 -22 57 -46 l30 -28 l37 -25 q7 0 36 -44 q34 -72 34 -98 q0 -14 -9 -27 q-5 -8 -49 -21 q-23 -7 -38 -24 q-3 -4 -35 -69 l-45 -66 l-21 -47 q-15 -31 -23 -48 q-13 -25 -13 -25 l2 -46 l-1 -18 l0 -13 q2 -20 68 -53 l236 -125 l33 -15 l27 -15 l27 -11 q78 -39 90 -40 q71 -24 172 -79 q4 -2 32 -10 q78 -21 81 -23 q76 -24 96 -27 q25 -3 70 -28 q45 -25 45 -84 q0 -58 -33 -87 q-14 -18 -16 -18 q-2 0 -4 1 q-70 -28 -107 -28 q-39 0 -77 25 l-33 16 l-37 29 q-30 12 -59 37 q-90 64 -189 128 q-52 36 -234 186 q-28 22 -70 37 l-54 41 l-14 8 l-21 21 l-23 7 l-56 28 q-44 11 -52 18 q-18 -10 -29 -14 q-32 -25 -130 -75 q-5 -3 -10 -23 q-3 -12 -22 -36 q-8 -11 -27 -46 q-16 -28 -41 -68 q-35 -41 -46 -54 q-56 -63 -53 -67 q-33 -55 -39.5 -63.5 q-6.5 -8.5 -36.5 -31.5 q-11 -15 -18 -17 q-5 -2 -15 -12 q-18 -24 -106 -54 q-51 -13 -84 -13 q-21 0 -74 16 q-21 4 -21 9 l2 25 l-5 23 l2 24 q2 39 10 49 q4 6 17 20 Z" /><glyph glyph-name="uni5143" unicode="&#x5143;" d="M251 707 l17 38 q30 -27 48 -27 q41 0 89 25 q66 34 123 53 l102 46 l77 24 q24 15 67 29 q29 10 139 47 q59 16 90 29 q20 9 78 16 q11 7 25 9 q60 14 78 29 q40 27 49 25 q24 -5 31 -7 q9 -2 38 -48 q46 -56 46 -57 l-4 -14 q-8 -27 -17 -30 q-24 -2 -46 -11 l-59 -59 q-11 -14 -23 -26 l-10 -11 l-32 -47 l-45 -69 q-84 -123 -205 -315 l-44 -60 l-68 -100 l-108 -134 l-84 -87 l-35 -36 q-54 -61 -100 -61 q-38 0 -75 27 q-10 8 -22 41 q-12 33 -12 53 q0 27 15 48 q5 7 11 7 q20 0 22 -45 q1 -33 14 -29 l22 7 q25 -1 46 65 l186 194 q43 58 100 129 q41 51 96 135 l98 145 l45 65 q64 76 90 100 q53 50 53 69 q0 8 -7 8 q-12 -1 -31 -16 l-41 -25 q-157 -75 -265 -130 l-8 -9 q-19 -4 -51 -22 l-21 -7 l-45 -28 l-53 -24 l-46 -46 q-9 -7 -44 -10 q-81 10 -109 21 l-60 24 l-59 21 q-15 5 -51 32 l-15 29 ZM1109 1411 q80 -20 109 -23 q77 -11 96 -34 q20 -23 20 -36 q0 -5 -8 -10 q-23 -44 -110 -44 q-34 0 -83 11 q-129 -21 -187 -23 q-20 -1 -35 -2 q-25 -3 -34 -3 q-9 0 -53 7 q-37 7 -43 11 l-62 38 q-24 15 -78 18 q-57 3 -57 22 q0 12 41 39 q5 21 7 22 q37 9 81 21 l172 -10 q10 0 38 4 q18 3 27 3 q6 0 21 -2 q32 -3 51 -3 q25 0 42 -3 q18 -2 45 -3 ZM1108 477 l35 77 q18 -36 18 -50 q0 -10 -4 -26 q-11 -38 -10 -49 l9 -108 q3 -36 -55 -291 q-2 -9 -2 -13 q0 -79 213 -79 q42 0 108 15 q133 21 158 30 q119 45 139 66 q35 33 48 60 q5 13 8 61 l0 6 q0 2 -2 10 q-3 34 -7 65 q-8 76 -14 104 q-9 39 -13 73 l-2 64 q-15 18 -15 30 q0 7 1 15 q16 -24 24 -29 q20 -14 24 -27 q9 -20 12 -39 l6 -36 l37 -72 l12 -59 l45 -91 q5 -28 31 -80 l2 -23 q8 -25 9 -33 q1 -15 2 -19 q2 -12 2 -18 q0 -10 -6 -16 q-3 -3 -3 -3 q-2 -3 -2 -3 l-7 2 l0 -2 l-1 -1 l-7 -18 q-16 -11 -19 -17 q-4 -12 -27 -32 q-40 -19 -86 -40 q-46 -5 -65 -15 q-6 -2 -10 -2 q-5 0 -12 2 q-10 3 -10 3 l-123 -28 l-33 2 q-11 0 -33 -5 q-26 -7 -38 -7 q-15 0 -45 9 q-24 -10 -29 -9 l-79 11 l-25 -1 l-71 18 q-70 13 -86 21 q-102 56 -102 194 q0 92 15 119 l9 17 q4 7 20 96 q46 141 56 171 Z" /><glyph glyph-name="uni5185" unicode="&#x5185;" d="M458 926 q-18 -27 -17 -35 l3 -40 q4 -51 8 -56 q2 -3 127 -58 q24 -10 39 -36 q32 -54 32 -116 q0 -84 -7 -111 q-3 -11 -3 -15 q0 -19 9 -19 l1 0 l1 0 q1 0 10 12 l37 -7 q4 0 15 12 q20 24 32 36 q16 12 23 34 q82 135 82 138 l119 312 l9 36 q-78 -17 -105 -20 q-160 -21 -187 -43 q-66 -51 -105 -70 q46 136 109 185 q22 15 56 21 q9 3 214 23 q42 5 55 20 q13 14 19 58 q3 26 14 101 q2 11 2 18 q0 14 -69 145 q-1 2 -1 6 q0 28 38 28 q40 0 101 -49 q84 -66 84 -153 q0 -22 -27 -124 q0 -1 0 -2 q0 -10 16 -10 q13 0 43 14 q57 3 73 14 q43 22 44 22 l62 -19 l27 -6 l84 -71 q81 -70 88 -80 q19 -29 19 -57 q0 -23 -8 -36 l-33 -52 q-19 -31 -32 -113 q-19 -65 -18 -109 q0 -29 11 -44 q4 -6 34 -42 q9 -12 21 -60 q4 -15 4 -23 q0 -22 -14 -58 l-53 8 l-9 -268 q-4 -120 -20 -229 q-5 -37 -14 -52 q-29 -53 -41 -57 q-18 -7 -51 -7 q-29 0 -44 8 q-2 2 -66 82 q-4 5 -33 22 q-26 15 -101 67 q-12 12 -38 35 q-8 7 -32 46 q-23 38 -30 36 l-33 21 l-33 24 q-20 12 -38 59 q3 3 3 5 l-1 6 q91 -55 108 -62 q58 -19 134 -53 q12 -5 64 -5 q11 0 19 2 q8 1 8 1 l34 -3 q11 -1 19 14 q5 9 13 97 q11 69 12 113 q0 131 10 155 q3 15 3 24 q0 14 -11 24.5 q-11 10.5 -70 52.5 q-27 20 -198 136 q-70 39 -79 47 q-3 4 -5 4 q-6 0 -26 -30 q-42 -59 -66 -111 q-31 -63 -74 -96 l-52 -67 q-30 -22 -41 -37 q-11 -18 -15 -20 q-1 -1 -51 -25 q-7 -3 -9 -3 q-3 0 -8 2 q-2 8 -6 8 q-7 0 -18 -10 q-11 -10 -11 -17 q0 -2 8 -38 q2 -10 3 -65 q23 -123 27 -257 q0 -9 3 -22 q2 -8 2 -12 q0 -11 -28 -27 l-16 -22 l-30 28 q-3 14 -45 73 l-32 113 l-22 37 q-5 12 -7 46 q50 56 50 93 q0 16 -4 43 q-8 55 -9 155 q-4 167 -13 175 q-5 11 -42 19 q-40 7 -65 45 q-26 40 -26 72 q0 37 31 77 q8 11 26 19 ZM642 421 l1 -3 l0 -2 l1 -2 l0 -2 l2 -4 l1 -3 l2 -4 l0 -7 l1 -2 l4 -2 l0 1 l0 3 l2 0 l5 4 l6 0 l3 3 l0 3 l-2 2 l-2 2 l6 0 l-2 4 l-1 1 l-2 0 l-3 1 l-4 2 l-1 1 l-7 0 l-2 0 l-2 3 l1 2 l0 1 l2 3 l-4 4 l2 3 l0 7 l-8 0 l0 -4 l2 -6 l-2 -6 l1 -3 ZM1396 699 l28 283 q0 4 0 20 q0 23 -7 35 q-2 2 -51 30 q-35 24 -42 24 q-19 0 -119 -28 q-31 -8 -42 -16 q-11 -8 -29 -33 q-79 -107 -79 -146 q0 -18 74 -32 q29 -7 144 -68 q63 -33 123 -69 Z" /><glyph glyph-name="uni53C2" unicode="&#x53c2;" d="M208 163 q50 23 102 39 q45 13 56 24 q88 79 100 85 q61 63 74 81 l120 164 q22 30 71 112 q8 6 8 10 q1 2 1 2 q1 1 1 1 l-1 2 q-2 4 -6 4 q-18 0 -52 -40 q-8 -2 -56 -31 l-28 -11 l-20 -8 q-20 -5 -51 -25 q-10 -2 -18 -8 q0 -1 0 -1 q0 0 -1 1 q-1 1 -7 4 q-6 0 -50 -17 q-9 -4 -16 -4 q-35 0 -71 30 q-22 18 -26 37 q-4 16 -13 25 q-5 6 -5 16 q0 6 3 15 q9 -7 15 -9 l31 -31 q3 -2 14 -2 q30 0 49 9 l228 108 l140 59 q5 -1 58 44 q31 60 55 74 q16 8 20 13 q10 12 13 46 q-50 -17 -66 -21 q-101 -27 -111 -32 q-25 -11 -73 -19 q-20 -5 -21 -5 q-36 0 -77 24 q-3 2 -36 41 q-32 35 -32 48 q0 18 18 18 q0 0 19 -2 q44 9 83 23 q34 11 80 24 q29 11 39 36 q13 36 27 64 q10 21 92 128 q21 27 34 38 l59 91 q17 12 36 30 q12 13 12 19 q0 1 -4 14 q-2 5 -2 10 q0 7 24 34 q20 23 28 23 q3 0 32 -36 q60 -39 67 -48 q39 -48 39 -67 q0 -26 -26 -49 q-12 -10 -58 -22 q-27 -5 -97 -72 q-21 -17 -28 -22 q-26 -17 -40 -37 q-4 -5 -12 -15 q-10 -11 -18 -27 q-22 -17 -28 -30 q-9 -16 -19 -17 l1 -1 l1 -1 l1 -1 q-4 -3 -14 -9 q51 16 67 22 q85 31 90 32 l97 22 q7 1 14 10 l2 2 l-2 2 l0 2 l-86 85 l7 -3 l38 0 l26 -7 q79 -14 113 -28 l4 4 q42 -17 61 -36 q50 -43 56 -52 q13 -22 13 -42 q0 -23 -27 -45 q-20 -22 -36 -22 q-11 0 -21 5 q-37 19 -39 19 l-9 -1 l-1 0 l-81 6 q-6 -1 -24 -14 q-30 -22 -64 -32 l-60 -38 l-46 -22 q-5 -13 -5 -13 q0 -1 2 -4 q0 -36 5 -89 l-7 -15 q31 6 63 19 q46 7 67 30 q21 29 39 29 q15 0 31 -3 q59 -11 68 -11 q14 0 47 9 q13 7 44 16 q39 18 67 18 q4 0 14 -1 q12 -6 20 -9 q53 -9 51 -17 q37 -32 47 -35 l10 -32 q-25 2 -40 2 q-19 0 -62 -5 q-17 1 -22 -1 q-15 -2 -20 -1 q0 0 -1 0 q-26 -3 -34 -5 q-37 -8 -78 -12 q-7 -1 -7 -7 q0 -14 18 -26 q9 -6 29 -35 l23 -17 l22 -26 l49 -39 q16 -17 48 -44 q20 -9 34 -17 q111 -78 167 -92 l41 -22 q137 -65 182 -100 q45 -35 45 -56 q0 -21 -16 -51 q-8 -16 -20 -16 q-14 0 -34 10 q-76 2 -99 6 q-1 0 -1 0 q-9 0 -32 -8 q-10 -3 -20 -3 q-7 0 -19 7 q-20 6 -27 7 q-7 2 -34 25 q-24 13 -44 29 q-5 4 -29 24 q-89 73 -122 114 q-22 26 -42 41 q-35 41 -44 56 q-15 23 -38 45 l-5 9 l-31 38 l-20 32 q-41 55 -49 61 q-22 14 -34 23 q-5 -4 -5 -4 l-39 3 l-19 -3 q0 0 -2 3 l-24 -17 q-41 -5 -76 -26 l-51 -13 q-9 -2 -15 -5 q-74 -70 -99 -90 q-6 -5 -11 -17 q-49 -53 -61 -84 q-29 -68 -71 -127 q-17 -17 -20 -28 q-3 -11 -20 -36 l-3 -9 q-25 -31 -34 -38 q-32 -48 -55 -69 q-21 -18 -33 -32 q-25 -27 -46 -42 l-19 -21 l-22 -9 q-22 -20 -40 -28 q-25 -8 -32 -8 q-6 0 -39 -14 q-5 8 -16 7 l-20 -2 q-53 -1 -110 -7 q-22 -3 -30 -3 q-32 0 -32 17 q0 25 35 41 q39 18 44 18 q10 0 10 -9 q0 -2 -2 -5 ZM1020 -53 q18 23 49 40 l15 37 q19 33 19 38 q0 1 -17 37 q0 0 0 4 q0 4 14 6 q23 8 24 8 q9 0 68 -42 q31 -36 31 -58 q0 -15 -17 -29 q-5 -4 -46 -36 q-31 -13 -53 -35 q-93 -98 -146 -112 l-66 -40 q-44 -14 -54 -23 q-3 -3 -4 -3 q-12 0 -9 5 l15 33 l7 16 l12 10 l19 23 q42 24 58 43 q51 48 81 78 ZM1057 341 q-5 10 -13 19 q-4 6 -4 6 q0 6 18 11 q0 0 4 3 q21 15 31 15 q8 0 20 -17 q2 -3 13 -10 q54 -33 54 -71 q0 -43 -153 -108 q-1 -1 -19 -18 q-16 -13 -54 -25 q-3 -1 -3 -5 l0 -2 l0 -2 l1 -3 q2 -9 -8 -3 l-20 11 l-10 -18 q-19 19 -19 24 l0 1 q0 19 73 94 q50 51 89 98 ZM970 551 l36 36 q14 23 20 30 q8 10 8 13 l-4 31 q-1 5 10.5 14.5 q11.5 9.5 18.5 9.5 q17 0 38 -12 l35 -44 q32 -34 32 -54 q0 -16 -28 -39 q-28 -23 -67 -39 q-17 -8 -22 -11 q-42 -23 -53 -23 q-16 -1 -20 -2 q-6 -2 -6 -2 l-13 3 q-7 2 -32 -19 q-10 -8 -10 -19 q0 -7 2 -17 q-9 18 -9 30 q0 36 64 114 Z" /><glyph glyph-name="uni5956" unicode="&#x5956;" d="M1026 732 q17 -17 24 -19 l55 -18 q13 -11 22 -11 q16 1 32 33 q67 99 92 143 q25 37 25 58 q0 15 -16 29 q-71 64 -79 92 q-2 6 -8 6 q-4 0 -13 -7 q-3 -2 -23 -69 q-23 -53 -26 -55 q-11 -11 -43 -11 q-8 0 -11 5 q-2 4 -2 30 q-1 23 -5 39 q4 3 11 51 q28 80 35 126 q7 39 16 48 l42 57 q15 27 39 52 q19 19 58 69 q44 56 59 67 q5 3 39 19 l0 0 l27 -35 q25 -23 27 -28 q2 -5 5 -31 q-1 -25 -26 -62 q29 2 59 16 q23 11 47 11 q20 0 41 -8 q13 -5 29 -6 q31 -28 44 -35 q7 -4 15 -17 q21 -35 21 -36 q0 -4 -15 -27 q-24 -46 -67 -127 q-24 -43 -35 -54 q-33 -37 -33 -48 q0 -9 9 -18 q7 -5 11 -25 q0 -4 7 -9 q-2 -16 -2 -26 q0 -14 9 -25 q-3 -48 -17 -50 q-2 -1 -2 -6 q-27 -22 -40 -22 q-1 0 -31 8 l-22 1 q-35 15 -39 15 q-20 0 -41 -28 q-21 -28 -26 -38 q-5 -8 -19 -20 l-11 -18 q-19 -18 -19 -19 l0 0 q-1 -4 -11 -8 q-6 -2 -15 -16 q-15 -22 -36 -26 q-2 0 -19 -8 q-5 -2 -7 -2 q-2 0 -9 2 q-16 7 -18 5 l0 -2 q3 -32 27 -67 q4 -5 9 -41 q2 -18 27 -18 l109 5 q69 2 198 19 q18 -4 31 -4 q8 0 43 16 q10 4 20 4 q9 0 47 -17 l24 -2 q57 -12 62 -13 q5 -1 5 -8 q77 -20 90 -54 q15 -11 15 -11 q3 -9 3 -24 q0 -22 -9 -30 q-11 -10 -40 -18 q-22 -5 -25 -4 l-88 19 l-68 11 l-12 2 l-5 0 l-74 9 l-75 -1 l-105 1 l-52 -7 q-59 -6 -74 -11 q-26 -2 -35 -8 q-2 -2 -13 -20 q-24 -19 -32 -35 q-3 -7 -8 -17 l-26 -84 l-24 -58 q-12 -40 -28 -70 q-35 -40 -44 -54 q-25 -37 -60 -74 l-9 -15 l-24 -14 q-34 -29 -95 -38 l-2 0 l-129 -20 q-22 -15 -26 -14 q-110 36 -111 40 q0 2 -13 8 q8 24 8.5 24 q0.5 0 37.5 2 q10 1 46 32 q7 10 57 32 q41 19 103 64 q16 8 42 35 q10 11 27 26 q48 46 75 92 l14 21 l1 14 l39 73 q-5 11 -18 17 q-1 0 -4 -3 q-12 -12 -132 -44 l-65 -13 l-59 -25 l-70 -21 l-214 -72 q-172 -58 -260 -58 q-47 0 -76 28 l-8 8 q-37 32 -36 37 q3 14 9 14 l1 0 q7 0 37 -12 q8 -3 11 -3 q10 0 47 14 l275 104 l16 15 l324 103 l82 17 q83 21 136 35 q16 6 40 35 q4 7 4 27 l5 16 q-17 58 -18 70 q-1 24 -7 51 q-4 18 -4 28 q0 10 16 22 ZM366 1200 q54 -13 196 -28 q5 -2 92 -36 l9 -9 q46 -8 74 -94 q7 -26 7 -40 q0 -16 -12 -50 q32 7 33 25 q-1 4 4 35 q4 24 7 51 q22 165 45 233 l26 94 q20 63 19 70 q-1 15 -6 21 q-3 3 -50 16 q-1 0 -3 5 q1 19 54 32 q53 -48 70 -78 q6 -11 24 -116 q2 -12 16 -61 q2 -8 2 -9 q0 -16 -60 -175 l-2 -4 l-2 -13 l-51 -249 l1 -5 q0 -1 -8 -18 q-6 -34 -6 -44 q0 -6 3 -14 q3 -10 3 -13 q0 -3 -3 -11 q-7 -18 -7 -44 q0 -77 -8 -97 q-14 -52 -18 -60.5 q-4 -8.5 -18 -14.5 l-28 135 l-1 41 q-11 44 -11 49 l3 30 l6 62 l1 7 q0 5 -4 9 l-3 2 q-1 0 -2 -3 q-5 -7 -13 -14 q-24 -17 -27 -20.5 q-3 -3.5 -16 -28.5 q-14 -25 -50 -65 q-100 -150 -104 -153 q-11 -10 -26 -10 q-66 0 -129 78 q-40 48 -40 74 q0 13 12 13 q9 0 18 -10 q2 -3 4 -3 l3 3 l13 10 l19 18 l15 8 l90 78 q16 10 41 37 l65 50 q25 22 39 33 q1 5 2 4 l2 1 l-1 1 q0 0 -1 1 q0 0 0 1 q-2 4 -61 21 q-108 62 -166 137 q-23 32 -35 42 q-19 17 -46 63 ZM1379 1067 q17 30 35 70 q30 66 31 76 q1 16 -44 16 q-77 0 -143 -37 q-14 -8 -36 -44 q-34 -55 -34 -63 q0 -12 76 -22 q18 -2 43 -13 q19 -9 30 -9 q8 0 22.5 10.5 q14.5 10.5 17.5 16.5 q0 1 0 1 q0 0 1 -1 q0 0 0 0 q0 0 1 0 l0 -1 l0 0 l0 0 ZM1410 116 q16 -13 26 -28 q0 0 17 -13 q40 -48 66 -76 q6 -18 25 -46 l12 -44 q7 -17 7 -22 q0 -5 -6 -65 q-19 -32 -28 -32 q-10 0 -32 23 l-41 33 q-10 19 -29 33 q-11 14 -84 116 q-31 67 -76 176 q-5 18 -14 81 l-2 14 q0 0 2 1 l3 2 q0 0 2 -2 q-5 -6 39 -38 q12 -9 58 -58 q12 -15 55 -55 Z" /><glyph glyph-name="uni5C0F" unicode="&#x5c0f;" d="M499 608 q22 -77 33 -102 q32 -83 31 -105 l-3 -47 l6 -50 q3 -45 -19 -161 q-12 -53 -28 -78 q-20 -34 -30 -46 q-19 -7 -34 -11 l-30 -8 q-27 -3 -51 -10 q-30 19 -39 29 q-8 9 -12 34 q-7 45 -10 60 q-6 30 -6 34 l4 95 l1 15 l4 22 l18 141 l24 111 q20 93 24 111 q4 10 38 109 l28 84 q34 67 38 67 q0 0 0 0 q2 -1 3 -1 l11 -146 l1 -10 q0 -4 0 -12 q0 -5 0 -8 q0 -35 -5 -73 q-1 -6 -1 -9 q0 -2 1 -8 q1 -9 3 -27 ZM967 1191 q-8 26 -23 60 q-34 80 -34 139 q0 14 9 14 q17 0 62 -75 q23 -39 75 -106 q16 -13 22 -31 q16 -19 21 -35 q4 -11 21 -59 l49 -364 q9 -67 11 -110 q6 -111 10 -132 q6 -34 6 -37 l-3 -79 q0 -6 5 -38 q6 -32 6 -57 q0 -63 -26 -171 q-13 -53 -60 -115 q-16 -20 -48 -41 q-50 -34 -58 -38 q-6 -2 -41 -7 l-27 -7 q0 0 -9 4 q-4 2 -29 6 q-70 12 -116 139 q-35 88 -39 106 q-3 16 -5 42 q-3 23 -15 102 q1 10 1 15 q0 34 -10 58 q-2 4 -2 6 q0 3 4 8 l31 -45 q40 -90 50 -104 q16 -20 68 -44 q50 -23 50 -23 q8 0 24 19 q27 32 27 144 q0 27 3 102 q14 275 14 485 q0 120 -24 269 ZM1602 317 l-85 264 l-29 53 l-26 58 q-39 75 -39 83 q0 5 7 12 q7 7 13 7 q21 0 134 -73 q19 -12 93 -83 q33 -32 44 -55 q33 -73 40 -105 q9 -48 9 -110 q0 -56 -19 -90 q-2 -4 -46 -61 l-23 -34 q-18 0 -40 24 q-15 16 -18 32 l-15 78 Z" /><glyph glyph-name="uni65F6" unicode="&#x65f6;" d="M186 1062 q28 -36 39 -54 q5 -10 35 -100 l132 -158 q24 -30 40 -94 q9 -37 18 -46 q9 -8 27 -8 q6 0 19 1 q69 22 98 22 q60 0 60 -50 q0 -32 -22 -49 q-8 -7 -65 -22 q-30 -27 -30.5 -27.5 q-0.5 -0.5 -21.5 -36.5 q-21 -32 -21 -46 q0 -20 15 -86 q-6 -11 -6 -15 q0 0 0 -1 q8 -47 8 -54 q1 -5 8 -30 q3 -40 23 -40 q25 0 72 26 q47 26 60 48 q7 12 7 34 l-1 483 q1 106 19 201 q3 19 3 36 q0 16 -11 16 q-7 0 -49 -15 q-27 -10 -47 -10 q-17 0 -53 13 q-6 -2 -10 -2 q-6 0 -13 9 q-6 8 -6 9 q3 5 4 11 q1 20 52 46 q66 32 80 48 l39 44 q27 30 59 27 l9 -1 l32 -3 q2 0 51 -38 q14 -10 28 -43 q9 -23 25 -52 q9 -15 9 -26 q0 -7 -35 -38 q-21 -19 -47 -110 q-14 -48 -14 -57 l-14 -180 l9 -423 l0 0 l12 -137 l2 -54 q0 -47 -31 -75 q-19 -17 -41 -17 q-41 0 -95 71 q-19 25 -26 25 q-7 2 -8 3 q-2 1 -2 1 q-8 0 -13 -7 q-24 -29 -28 -31 q-66 -43 -83 -43 q-3 0 -35 10 q-30 17 -32 18 q-2 1 -15 23 l-33 39 l-11 27 l-4 10 q8 30 13 89 q-9 107 -9 141 q-5 163 -15 216 q-34 183 -47 215 q-6 11 -101 111 q-17 18 -39 82 q-15 41 -15 78 q0 47 27 47 q5 0 15 -1 ZM908 814 q46 -35 71 -35 q18 0 41 11 l353 173 l31 12 l13 96 l36 202 q10 53 10 98 q0 41 -47 119 q-21 34 -21 59 q0 4 2 17 q44 -44 103 -91 q24 -20 45 -60 q22 -43 22 -89 q0 -19 -10 -66 l-5 -45 l-8 -45 q-3 -21 -6 -25 q-4 -6 -4 -8 q0 -4 0 -6 q-8 -28 -11 -36 q-13 -43 -15 -54 q-2 -9 -4 -11 q-4 -5 -4 -7 q0 -6 11 -6 q7 0 38 22 q29 21 123 51 q26 8 47 16 q17 7 30 7 q3 0 10 -4 q136 -46 140 -52 q7 -11 7 -24 q0 -42 -16 -51 q-4 -2 -72 -7 q-55 -21 -100 -28 l-46 -7 q-12 -2 -19 -7 q-101 -27 -123 -38 q-25 -12 -24 -29 l4 -48 l-1 -44 q0 -16 4 -50 q4 -30 4 -48 l-1 -26 q0 -42 15 -182 q2 -20 7 -49 l20 -355 l0 -32 l7 -50 l-9 -72 q0 -29 -9 -58 q-8 -27 -11 -33 q-3 -6 -15 -14 q-42 -31 -68 -31 q-33 0 -87 26 q-17 9 -128 80 q-59 26 -79 61 q-4 9 -24 92 q-5 20 -12 37 q2 11 2 16 q0 19 -14 54 l9 30 l5 23 q42 -144 72 -168 q21 -16 62 -16 q68 0 110 17 q12 -1 16 4 q6 10 9 66 l5 32 l0 44 l4 34 l-8 625 l-22 -13 q-45 -24 -53 -26.5 q-8 -2.5 -90 -18.5 q-79 -15 -154 -40 q26 -24 32 -35 q38 -61 39 -61 l24 -10 q52 -52 82 -80 q7 -13 15 -71 l4 -15 l-3 -50 q-1 -52 -10 -101 q-8 -37 -40 -66 q-20 -28 -21.5 -29.5 q-1.5 -1.5 -13.5 -3.5 q-52 14 -75 43 q-13 16 -27 61 q-7 14 -26 124 q0 1 7 13 q-5 47 -6 63 q-6 68 -25 98 q-9 15 -16 41 l35 -32 q-9 25 -9 35 q0 26 34 71 q-87 3 -101 18 q-18 4 -67 68 Z" /><glyph glyph-name="uni6B21" unicode="&#x6b21;" d="M230 261 q30 -25 39 -26 l1 0 q7 0 14 9 l143 184 l192 234 l34 58 q31 22 78 84 l20 25 q5 6 5 10 q0 5 -11 13 q-7 6 -8 6 l-98 -26 q-9 -2 -61 26 q-4 2 -6 2 q-6 0 -55 -47 q-12 -13 -22 -13 q-12 0 -82 36 l-51 54 l-47 46 l-20 28 q-40 51 -40 57 q0 14 14 32 q7 8 10 7 l25 -4 l36 4 q3 0 33 -6 q10 -2 18 -2 q6 0 16 1 q47 -13 63 -15 q42 -6 76 -21 l45 -17 q91 -68 110 -84 q32 -27 58 -64 q2 -3 3 -3 q4 0 78 66 q-51 -69 -138 -178 l-20 -74 l4 7 l-2 -27 q1 -3 1 -6 q0 -26 -5 -45 q-2 -6 -10 -24 q-15 -34 -40 -106 q-53 -143 -76 -162 q-25 -33 -50 -67 q-46 -77 -59 -85 q-25 -18 -53 -18 q-19 0 -99 34 q-63 10 -66 13 q-7 7 -7 19 l10 65 ZM497 5 l6 9 q15 -12 20 -12 q5 0 14 7 q4 2 40 18 q63 35 112 58 q88 49 139 112 q81 103 146 302 q32 98 31 135 q2 52 15 77 q4 21 19 57 q10 26 10 51 q0 21 -4 51 q10 12 22 52 q1 3 7 3 l2 0 q30 -7 52 -78 q9 -29 27 -66 q8 -18 8 -20 q0 -2 -2 -5 q-1 -3 -1 -4 q0 -7 3 -7 l1 0 l1 0 q1 -1 6 -22 l4 -20 q0 -43 5 -54 q9 -15 34 -42 q13 -13 50 -57 q25 -17 34 -23 q20 -12 28 -25 q28 -19 38 -28 q25 -24 83 -64 q65 -44 110 -79 q37 -28 105 -61 q43 -23 89 -44 q64 -32 80 -41 q15 -9 28 -25 q55 -48 69 -70 q41 -51 41 -68 q0 -12 -12 -24 q-12 -11 -28 -11 q-21 0 -54 7 q-22 5 -40 5 q-9 0 -20 -2 q-21 -5 -24 -5 l-32 3 q-4 0 -18 -7 q-13 2 -15 2 q-16 0 -61 -3 q-2 0 -5 0 q-6 0 -56 21 q-15 14 -29 20 q-17 7 -35 18 q-39 43 -98 93 q-11 10 -44 50 l-28 32 l-29 44 q-87 106 -158 210 q-12 10 -15 14 q-16 16 -19 18 q-19 10 -56 14 q-23 -25 -32 -66 q-7 -24 -67 -186 q-36 -97 -52.5 -126 q-16.5 -29 -63.5 -77 q-51 -53 -82.5 -70 q-31.5 -17 -100.5 -30 l-65 -12 l-41 5 l-37 -3 l-20 11 l-12 5 q-13 25 -23 33 ZM900 811 l2 20 l7 17 l118 333 q3 10 24 43 q29 44 66 135 q22 56 22 72 q0 15 -15 26 q-14 12 -37 12 q-14 0 -33 -1 q24 68 47 59 l40 -15 q78 -26 86 -33 q32 -29 32 -84 q0 -80 -206 -381 q-26 -42 -41 -73 q-22 -45 -51 -70 q-32 -43 -52 -59 l-9 -1 ZM1195 1092 q25 9 28 12 l103 75 q46 24 60 36 q7 9 16 35 q4 11 39 11 q12 -8 48 -13 q49 -17 90 -90 q1 -8 4 -8 l2 0 q1 0 8 -17 q11 -25 11 -29 q0 -10 -4 -22 q-1 -23 -8 -29 q-36 -28 -51 -49 q-23 -18 -45 -60 q-68 -135 -111 -177 q-25 -24 -65 -24 q-17 0 -25 11 q-5 7 -26 11 q3 11 3 19 q0 11 -14 11 l16 8 q23 12 33 32 q65 151 99 257 q-9 17 -23 17 q-7 0 -50 -12 q-36 -11 -64 -11 q-9 0 -74 6 Z" /><glyph glyph-name="uni6D3E" unicode="&#x6d3e;" d="M286 723 l8 6 l8 -3 q69 -5 111 -27 l36 -15 q57 -50 64 -63 l4 -5 l3 -9 l9 -24 q0 -1 -2 -5 q17 -9 17 -43 q0 -31 -6 -45 q-23 -48 -28 -91 q-8 44 -19 54 l-23 23 l-7 7 l-24 14 l-38 35 l-27 3 l-37 17 q-38 16 -40 17.5 q-2 1.5 -15 18.5 q-23 35 -52 67 q0 10 -11 52 q-1 5 -1 9 q0 22 23 22 q12 0 47 -15 ZM406 110 q-3 -15 -3 -25 q0 -11 9 -34 q2 -4 4 -4 q31 2 33 72 l1 18 q0 2 49 102 q12 27 41 148 q6 17 14 21 l2 1 l1 -1 q5 -2 4 -9 l-4 -34 q-7 -51 -33 -116 q-23 -55 -23 -94 q0 -19 16 -49 q3 -5 3 -8 q0 -4 -3 -10 q-35 -80 -31 -140 q4 -97 -13 -114 q-7 -6 -14 -16 q-2 -3 -39 -29 q-15 -10 -18 -10 q-13 0 -31 26 q-35 49 -35 96 q0 27 39 118 q10 24 31 91 ZM713 895 q6 34 6 58 q0 25 -27 54 l-25 25 q-9 6 -35 13 q-17 9 -23 9 q-2 0 -8 -2 q-13 -4 -16 -4 q-21 0 -58 29 q-4 3 -23 26 l-41 34 l-6 11 l-17 7 l-18 17 l-13 5 q-43 36 -43 42 q0 1 1 4 q2 4 2 11 q-1 25 3 27 l17 10 l21 15 q4 2 26 2 q12 0 38 5 q14 2 23 2 q12 0 46 -20 q2 -1 14 -3 q36 -7 53 -24 l30 -15 l16 -13 q18 -3 31 -17 q4 -5 18 -17 q14 -12 22 -24 q48 -52 48 -114 q0 -38 -62 -153 ZM651 11 q37 44 35 46 q21 33 37 123 l60 330 q16 102 19 117 q-3 12 -3 18 q0 9 2 26 q1 18 3 53 l3 4 q-7 17 -7 23 l2 46 q0 0 -4 7 q-5 8 -5 14 q0 3 2 10 q8 24 19 71 l26 18 q3 15 18 19 q6 2 8 2 q14 0 23 -7 q4 -3 38 -53 q15 -24 21 -24 q1 0 6 3 q23 29 50 87 q4 11 13 22 q1 0 1 1 q0 0 0 1 q-1 1 -1 1 q0 2 8 14 q4 5 14 26 q12 26 34 55 q22 29 33 51 l116 178 q65 111 65 121 q0 11 -33 81 q-4 8 -4 14 q0 7 5 13 q7 7 9 5 l19 -23 l47 -40 q37 -64 37 -84 q0 -64 -121 -201 q-48 -54 -44 -66 q-2 -7 -11 -13 l-1 1 l0 0 l-5 -7 l-3 -4 l5 4 q-17 -19 -22 -25 q-53 -66 -54 -67 q-14 -14 -18 -32 q-1 -9 -19 -20 q-12 -44 -26 -52 q-9 -9 -10 -22 l-4 -8 q-13 -21 -42 -67 q-23 -32 -24 -45 q-1 -4 -5 -6 q-27 -54 -37 -94 q-23 -63 -61 -225 q-6 -43 -11 -55 q-2 -6 -2 -8 q0 -3 4 -8 q-4 -52 -12 -69 q-6 -16 -6 -24 q0 -2 2 -6 q2 -9 2 -10 q-2 -12 -2 -14 q-9 -88 -33 -184 q-22 -87 -47 -116 q-19 -23 -50 -39 q-11 -5 -16 -5 q-5 0 -27 19 q-32 2 -31 15 l3 47 l-2 19 q1 4 12 12 q1 1 2 6 ZM1092 677 q-6 10 -6 15 q0 7 15 20.5 q15 13.5 21 11.5 l33 -10 l15 8 l11 -2 l57 56 l15 10 l18 21 l37 30 l20 18 q30 16 96 102 q3 5 10 29 q3 11 18 30 q7 2 8 2 q16 0 39 -15 q12 -3 25 -17 l15 -27 q-4 -3 -4 -4 l3 -12 l-4 -9 l-13 -33 l-1 -2 l1 0 q0 0 0 0 l0 0 q-2 -8 -8 -9 q-6 -3 -15 -7 l-32 -21 q-29 -10 -58 -38 q-43 -44 -57 -55 q-14 -11 -63 -38 l-25 -21 q-81 -36 -79 -42 q8 -34 9 -35 q2 -1 2 -1 q0 -1 -2 -2 q-7 -3 -5 -7 l15 -37 q9 -30 50 -69 q19 -18 42 -47 q28 -37 38 -35 l9 2 q49 8 64.5 15 q15.5 7 48.5 36 q45 41 73 92 q10 18 10 31 q0 7 -4 21 q-2 8 -2 13 q0 26 15 26 q2 0 7 -3 q10 -4 28 -11 q6 0 36 -22 q19 -15 24 -29 q20 -44 20 -53 q0 -25 -11 -33.5 q-11 -8.5 -71 -30.5 q-93 -68 -139 -91 l-78 5 q14 -30 25 -36 l20 -12 q37 -31 51 -36 q23 -29 55 -46 l-2 -5 q21 -5 38 -22 q30 -19 52 -30 q12 -6 27 -17 q15 -7 20 -11 q11 -8 17 -10 q2 -1 13 -7 q12 -8 93 -34 q63 -31 131 -76 q30 -19 36 -32 q2 -7 11 -48 l0 -4 q0 -11 -9 -17 q-5 -4 -23 -10.5 q-18 -6.5 -21 -6.5 l-80 12 l-40 -26 l-126 42 q-4 0 -6 5 q-13 13 -28 20 l-1 0 l0 1 l1 0 l2 1 l1 -1 l11 -7 l-1 0 q-6 1 -34 26 q-46 30 -53 35 q-45 38 -97 97 q-46 41 -71 77 q-20 30 -33 44 q-28 31 -39 56 q-31 33 -72 93 q-12 18 -21 30 q-22 28 -21 31 q-8 22 -14 22 q-9 0 -12 -39 l-23 -259 l10 -44 q25 -26 25 -39 q2 -11 6 -12 q3 -1 8 -1 q17 1 66 -8 l12 0 q42 12 72 12 q8 0 16 -4 q6 -3 6 -3 q1 0 27 17 q-27 13 -27 16 q0 10 22 15 q2 1 3 1 q0 1 1 1 l1 -1 q24 -14 33 -31 q6 -34 6 -59 q0 -32 -59 -85 q-14 -3 -73 -27 q-5 -2 -20 -7 q-29 -10 -33 -12 l-74 -56 q-6 -4 -17 -4 q-35 0 -50 24 q-8 5 -34 67 l-6 9 q-22 68 -22 73 l2 13 l5 56 l12 54 l37 340 l8 56 q0 15 -9 37 q-9 21 -31 21 l-2 0 l-47 -5 q-1 1 -4 3 q-19 11 -19 34 q0 13 14 27 q13 14 28 14 q25 0 59 -18 Z" /></font>
</defs>
</svg>
